# xmcd CD database file
#
# Track frame offsets:
#	150
#	24102
#	37362
#	57330
#	79700
#	93197
#	111922
#	132495
#	148337
#
# Disc length: 2221 seconds
#
# Revision: 23
# Processed by: cddbd v1.5.2PL0 Copyright (c) Steve Scherf et al.
# Submitted via: CDex 1.79
#
DISCID=7c08ab09
DTITLE=Joshua Kadison - Painted Desert Serenade
DYEAR=1993
DGENRE=Ballad
TTITLE0=Jessie
TTITLE1=Painted Desert Serenade
TTITLE2=Beau's All Night Radio Love Line
TTITLE3=Invisible Man
TTITLE4=Mama's Arms
TTITLE5=Beautiful In My Eyes
TTITLE6=Picture Postcards From L.A.
TTITLE7=When A Woman Cries
TTITLE8=Georgia Rain
EXTD=YEAR: 1993
EXTT0=
EXTT1=
EXTT2=
EXTT3=
EXTT4=
EXTT5=
EXTT6=
EXTT7=
EXTT8=
PLAYORDER=
